<svg width="84" height="80" viewBox="0 0 84 80" fill="none" xmlns="http://www.w3.org/2000/svg">
    <g clip-path="url(#clip0_3_18)">
        <path d="M73.3861 36.6667C73.3955 34.3172 72.7838 32.007 71.6131 29.9699C70.4424 27.9329 68.7542 26.2414 66.7195 25.0667C66.7696 24.49 66.7696 23.91 66.7195 23.3333C66.7195 20.6812 65.6659 18.1376 63.7905 16.2623C61.9152 14.3869 59.3716 13.3333 56.7195 13.3333H56.1195C55.5644 11.7944 54.6402 10.4151 53.4279 9.31649C52.2157 8.21787 50.7524 7.43344 49.1664 7.03201C47.5804 6.63058 45.9202 6.62439 44.3312 7.014C42.7423 7.40361 41.2732 8.1771 40.0528 9.26666C38.8324 8.1771 37.3633 7.40361 35.7744 7.014C34.1855 6.62439 32.5252 6.63058 30.9392 7.03201C29.3532 7.43344 27.8899 8.21787 26.6777 9.31649C25.4654 10.4151 24.5412 11.7944 23.9861 13.3333H23.3861C20.734 13.3333 18.1904 14.3869 16.3151 16.2623C14.4397 18.1376 13.3861 20.6812 13.3861 23.3333C13.336 23.91 13.336 24.49 13.3861 25.0667C11.4943 26.136 9.89258 27.6515 8.72028 29.4812C7.54798 31.311 6.84068 33.3996 6.65994 35.5651C6.4792 37.7307 6.83051 39.9076 7.68328 41.9064C8.53605 43.9052 9.86444 45.6652 11.5528 47.0333C10.4604 49.0709 9.91653 51.3575 9.97463 53.6687C10.0327 55.9799 10.6908 58.2362 11.8842 60.2163C13.0777 62.1964 14.7654 63.8322 16.7819 64.963C18.7984 66.0939 21.0743 66.681 23.3861 66.6667H23.9861C24.5412 68.2056 25.4654 69.5849 26.6777 70.6835C27.8899 71.7821 29.3532 72.5666 30.9392 72.968C32.5252 73.3694 34.1855 73.3756 35.7744 72.986C37.3633 72.5964 38.8324 71.8229 40.0528 70.7333C41.2732 71.8229 42.7423 72.5964 44.3312 72.986C45.9202 73.3756 47.5804 73.3694 49.1664 72.968C50.7524 72.5666 52.2157 71.7821 53.4279 70.6835C54.6402 69.5849 55.5644 68.2056 56.1195 66.6667H56.7195C59.0172 66.6521 61.2723 66.0441 63.2658 64.9014C65.2593 63.7587 66.9237 62.1202 68.0975 60.1448C69.2714 58.1695 69.9147 55.9243 69.9653 53.627C70.0159 51.3298 69.4719 49.0584 68.3861 47.0333C69.9409 45.7885 71.1971 44.2112 72.0623 42.4173C72.9276 40.6233 73.3799 38.6584 73.3861 36.6667ZM36.7195 28.5C35.9935 28.0848 35.2355 27.7281 34.4528 27.4333C33.613 27.1504 32.6951 27.2128 31.9012 27.6066C31.1073 28.0004 30.5024 28.6935 30.2195 29.5333C29.9366 30.3732 29.9989 31.291 30.3927 32.0849C30.7866 32.8788 31.4796 33.4838 32.3195 33.7667C33.6026 34.2305 34.7125 35.077 35.4994 36.1916C36.2862 37.3063 36.7121 38.6356 36.7195 40V45.1667C35.9935 44.7514 35.2355 44.3947 34.4528 44.1C33.613 43.8171 32.6951 43.8794 31.9012 44.2732C31.1073 44.6671 30.5024 45.3601 30.2195 46.2C29.9366 47.0398 29.9989 47.9577 30.3927 48.7516C30.7866 49.5455 31.4796 50.1504 32.3195 50.4333C33.6026 50.8972 34.7125 51.7436 35.4994 52.8583C36.2862 53.973 36.7121 55.3023 36.7195 56.6667V63.3333C36.7195 64.2174 36.3683 65.0652 35.7432 65.6904C35.118 66.3155 34.2702 66.6667 33.3861 66.6667C32.7413 66.6625 32.1114 66.4713 31.573 66.1163C31.0346 65.7613 30.6108 65.2577 30.3528 64.6667C30.9117 64.3387 31.4464 63.9711 31.9528 63.5667C32.2899 63.2865 32.5685 62.9427 32.7726 62.5549C32.9768 62.1671 33.1026 61.7429 33.1429 61.3064C33.1831 60.87 33.137 60.4299 33.0072 60.0113C32.8773 59.5927 32.6663 59.2037 32.3861 58.8667C32.106 58.5296 31.7622 58.251 31.3744 58.0468C30.9866 57.8426 30.5623 57.7168 30.1259 57.6766C29.6895 57.6364 29.2494 57.6825 28.8308 57.8123C28.4121 57.9422 28.0232 58.1532 27.6861 58.4333C26.4826 59.4466 24.9594 60.0015 23.3861 60C21.618 60 19.9223 59.2976 18.6721 58.0474C17.4219 56.7971 16.7195 55.1014 16.7195 53.3333C16.7354 52.0786 17.1052 50.8539 17.7861 49.8C18.5342 49.9342 19.2928 50.0011 20.0528 50C20.9369 50 21.7847 49.6488 22.4098 49.0237C23.035 48.3986 23.3861 47.5507 23.3861 46.6667C23.3861 45.7826 23.035 44.9348 22.4098 44.3096C21.7847 43.6845 20.9369 43.3333 20.0528 43.3333C19.2654 43.3379 18.4846 43.1907 17.7528 42.9C16.554 42.4676 15.5042 41.7007 14.7278 40.69C13.9514 39.6794 13.481 38.4673 13.3722 37.1976C13.2635 35.9278 13.521 34.6534 14.1142 33.5255C14.7075 32.3975 15.6116 31.4632 16.7195 30.8333C17.1931 31.2691 17.7065 31.6597 18.2528 32C19.0219 32.442 19.9352 32.5604 20.7916 32.3291C21.648 32.0978 22.3775 31.5358 22.8195 30.7667C23.2615 29.9975 23.3799 29.0843 23.1486 28.2279C22.9173 27.3715 22.3553 26.642 21.5861 26.2C21.1169 25.9411 20.7256 25.5613 20.4528 25.1C20.1446 24.5648 20.0052 23.9491 20.0528 23.3333C20.0528 22.4493 20.404 21.6014 21.0291 20.9763C21.6542 20.3512 22.5021 20 23.3861 20C23.6184 19.9676 23.8539 19.9676 24.0861 20C24.2626 20.5356 24.4742 21.0589 24.7195 21.5667C24.9372 21.9486 25.2284 22.2837 25.5762 22.5527C25.9241 22.8216 26.3217 23.0191 26.7461 23.1337C27.1706 23.2484 27.6136 23.2779 28.0495 23.2206C28.4854 23.1633 28.9057 23.0204 29.2861 22.8C30.0252 22.3554 30.5631 21.6416 30.7868 20.8086C31.0106 19.9757 30.9028 19.0885 30.4861 18.3333C30.2065 17.822 30.0576 17.2495 30.0528 16.6667C30.0528 15.7826 30.404 14.9348 31.0291 14.3096C31.6542 13.6845 32.5021 13.3333 33.3861 13.3333C34.2702 13.3333 35.118 13.6845 35.7432 14.3096C36.3683 14.9348 36.7195 15.7826 36.7195 16.6667V28.5ZM62.3528 42.9C61.6211 43.1907 60.8402 43.3379 60.0528 43.3333C59.1688 43.3333 58.3209 43.6845 57.6958 44.3096C57.0707 44.9348 56.7195 45.7826 56.7195 46.6667C56.7195 47.5507 57.0707 48.3986 57.6958 49.0237C58.3209 49.6488 59.1688 50 60.0528 50C60.8128 50.0011 61.5714 49.9342 62.3195 49.8C63.0005 50.8539 63.3702 52.0786 63.3861 53.3333C63.3861 55.1014 62.6838 56.7971 61.4335 58.0474C60.1833 59.2976 58.4876 60 56.7195 60C55.1462 60.0015 53.623 59.4466 52.4195 58.4333C51.7388 57.8675 50.8612 57.5953 49.9797 57.6766C49.0983 57.7579 48.2853 58.1859 47.7195 58.8667C47.1537 59.5474 46.8815 60.425 46.9627 61.3064C47.044 62.1878 47.4721 63.0009 48.1528 63.5667C48.6592 63.9711 49.1939 64.3387 49.7528 64.6667C49.4949 65.2577 49.071 65.7613 48.5326 66.1163C47.9942 66.4713 47.3644 66.6625 46.7195 66.6667C45.8354 66.6667 44.9876 66.3155 44.3625 65.6904C43.7373 65.0652 43.3861 64.2174 43.3861 63.3333V56.6667C43.3936 55.3023 43.8194 53.973 44.6063 52.8583C45.3931 51.7436 46.503 50.8972 47.7861 50.4333C48.626 50.1504 49.3191 49.5455 49.7129 48.7516C50.1067 47.9577 50.169 47.0398 49.8861 46.2C49.6032 45.3601 48.9983 44.6671 48.2044 44.2732C47.4105 43.8794 46.4927 43.8171 45.6528 44.1C44.8701 44.3947 44.1121 44.7514 43.3861 45.1667V40C43.3936 38.6356 43.8194 37.3063 44.6063 36.1916C45.3931 35.077 46.503 34.2305 47.7861 33.7667C48.202 33.6266 48.5862 33.406 48.9168 33.1174C49.2474 32.8289 49.5179 32.478 49.7129 32.0849C49.9079 31.6918 50.0236 31.2642 50.0533 30.8264C50.083 30.3886 50.0262 29.9492 49.8861 29.5333C49.7461 29.1175 49.5255 28.7333 49.2369 28.4027C48.9483 28.0721 48.5975 27.8016 48.2044 27.6066C47.8113 27.4116 47.3836 27.2959 46.9458 27.2662C46.508 27.2365 46.0687 27.2933 45.6528 27.4333C44.8701 27.7281 44.1121 28.0848 43.3861 28.5V16.6667C43.3861 15.7826 43.7373 14.9348 44.3625 14.3096C44.9876 13.6845 45.8354 13.3333 46.7195 13.3333C47.6035 13.3333 48.4514 13.6845 49.0765 14.3096C49.7016 14.9348 50.0528 15.7826 50.0528 16.6667C50.048 17.2495 49.8992 17.822 49.6195 18.3333C49.3977 18.7118 49.2528 19.1303 49.1931 19.5649C49.1334 19.9994 49.16 20.4415 49.2715 20.8658C49.383 21.29 49.5771 21.6881 49.8428 22.0372C50.1084 22.3862 50.4403 22.6795 50.8195 22.9C51.1999 23.1204 51.6202 23.2633 52.0561 23.3206C52.4921 23.3779 52.935 23.3484 53.3595 23.2337C53.784 23.1191 54.1816 22.9216 54.5294 22.6527C54.8772 22.3837 55.1684 22.0486 55.3861 21.6667C55.6356 21.1265 55.8473 20.5696 56.0195 20C56.2517 19.9676 56.4873 19.9676 56.7195 20C57.6035 20 58.4514 20.3512 59.0765 20.9763C59.7016 21.6014 60.0528 22.4493 60.0528 23.3333C60.0477 23.9868 59.8507 24.6243 59.4861 25.1667C59.2135 25.5992 58.8349 25.9549 58.3861 26.2C57.617 26.642 57.055 27.3715 56.8237 28.2279C56.5924 29.0843 56.7108 29.9975 57.1528 30.7667C57.5948 31.5358 58.3243 32.0978 59.1807 32.3291C60.0371 32.5604 60.9504 32.442 61.7195 32C62.318 31.6763 62.8772 31.2849 63.3861 30.8333C64.4978 31.4521 65.4092 32.3761 66.0127 33.4961C66.6162 34.6162 66.8866 35.8855 66.792 37.1543C66.6973 38.423 66.2416 39.6382 65.4786 40.6563C64.7157 41.6744 63.6773 42.453 62.4861 42.9H62.3528Z" fill="#9374DE"/>
    </g>
    <g clip-path="url(#clip1_3_18)">
        <path d="M73.3861 36.6667C73.3955 34.3172 72.7838 32.007 71.6131 29.9699C70.4424 27.9329 68.7542 26.2414 66.7195 25.0667C66.7696 24.49 66.7696 23.91 66.7195 23.3333C66.7195 20.6812 65.6659 18.1376 63.7905 16.2623C61.9152 14.3869 59.3716 13.3333 56.7195 13.3333H56.1195C55.5644 11.7944 54.6402 10.4151 53.4279 9.31648C52.2157 8.21786 50.7524 7.43344 49.1664 7.032C47.5804 6.63057 45.9202 6.62438 44.3312 7.01399C42.7423 7.4036 41.2732 8.1771 40.0528 9.26666C38.8324 8.1771 37.3633 7.4036 35.7744 7.01399C34.1855 6.62438 32.5252 6.63057 30.9392 7.032C29.3532 7.43344 27.8899 8.21786 26.6777 9.31648C25.4654 10.4151 24.5412 11.7944 23.9861 13.3333H23.3861C20.734 13.3333 18.1904 14.3869 16.3151 16.2623C14.4397 18.1376 13.3861 20.6812 13.3861 23.3333C13.336 23.91 13.336 24.49 13.3861 25.0667C11.4943 26.136 9.89258 27.6515 8.72028 29.4812C7.54798 31.311 6.84068 33.3996 6.65994 35.5651C6.4792 37.7307 6.83051 39.9076 7.68328 41.9064C8.53605 43.9052 9.86444 45.6652 11.5528 47.0333C10.4604 49.0709 9.91653 51.3575 9.97463 53.6687C10.0327 55.9799 10.6908 58.2362 11.8842 60.2163C13.0777 62.1964 14.7654 63.8322 16.7819 64.963C18.7984 66.0939 21.0743 66.6809 23.3861 66.6667H23.9861C24.5412 68.2056 25.4654 69.5849 26.6777 70.6835C27.8899 71.7821 29.3532 72.5665 30.9392 72.968C32.5252 73.3694 34.1855 73.3756 35.7744 72.986C37.3633 72.5964 38.8324 71.8229 40.0528 70.7333C41.2732 71.8229 42.7423 72.5964 44.3312 72.986C45.9202 73.3756 47.5804 73.3694 49.1664 72.968C50.7524 72.5665 52.2157 71.7821 53.4279 70.6835C54.6402 69.5849 55.5644 68.2056 56.1195 66.6667H56.7195C59.0172 66.6521 61.2723 66.044 63.2658 64.9014C65.2593 63.7587 66.9237 62.1202 68.0975 60.1448C69.2714 58.1695 69.9147 55.9243 69.9653 53.627C70.0159 51.3298 69.4719 49.0584 68.3861 47.0333C69.9409 45.7885 71.1971 44.2112 72.0623 42.4173C72.9276 40.6233 73.3799 38.6583 73.3861 36.6667ZM36.7195 28.5C35.9935 28.0848 35.2355 27.7281 34.4528 27.4333C33.613 27.1504 32.6951 27.2127 31.9012 27.6066C31.1073 28.0004 30.5024 28.6935 30.2195 29.5333C29.9366 30.3732 29.9989 31.291 30.3927 32.0849C30.7866 32.8788 31.4796 33.4838 32.3195 33.7667C33.6026 34.2305 34.7125 35.077 35.4994 36.1916C36.2862 37.3063 36.7121 38.6356 36.7195 40V45.1667C35.9935 44.7514 35.2355 44.3947 34.4528 44.1C33.613 43.8171 32.6951 43.8794 31.9012 44.2732C31.1073 44.6671 30.5024 45.3601 30.2195 46.2C29.9366 47.0398 29.9989 47.9577 30.3927 48.7516C30.7866 49.5455 31.4796 50.1504 32.3195 50.4333C33.6026 50.8972 34.7125 51.7436 35.4994 52.8583C36.2862 53.973 36.7121 55.3023 36.7195 56.6667V63.3333C36.7195 64.2174 36.3683 65.0652 35.7432 65.6904C35.118 66.3155 34.2702 66.6667 33.3861 66.6667C32.7413 66.6625 32.1114 66.4713 31.573 66.1163C31.0346 65.7613 30.6108 65.2577 30.3528 64.6667C30.9117 64.3387 31.4464 63.9711 31.9528 63.5667C32.2899 63.2865 32.5685 62.9427 32.7726 62.5549C32.9768 62.1671 33.1026 61.7428 33.1429 61.3064C33.1831 60.87 33.137 60.4299 33.0072 60.0113C32.8773 59.5927 32.6663 59.2037 32.3861 58.8667C32.106 58.5296 31.7622 58.251 31.3744 58.0468C30.9866 57.8426 30.5623 57.7168 30.1259 57.6766C29.6895 57.6363 29.2494 57.6825 28.8308 57.8123C28.4121 57.9421 28.0232 58.1532 27.6861 58.4333C26.4826 59.4466 24.9594 60.0015 23.3861 60C21.618 60 19.9223 59.2976 18.6721 58.0474C17.4219 56.7971 16.7195 55.1014 16.7195 53.3333C16.7354 52.0786 17.1052 50.8539 17.7861 49.8C18.5342 49.9342 19.2928 50.0011 20.0528 50C20.9369 50 21.7847 49.6488 22.4098 49.0237C23.035 48.3986 23.3861 47.5507 23.3861 46.6667C23.3861 45.7826 23.035 44.9348 22.4098 44.3096C21.7847 43.6845 20.9369 43.3333 20.0528 43.3333C19.2654 43.3379 18.4846 43.1907 17.7528 42.9C16.554 42.4676 15.5042 41.7007 14.7278 40.69C13.9514 39.6794 13.481 38.4673 13.3722 37.1975C13.2635 35.9278 13.521 34.6534 14.1142 33.5255C14.7075 32.3975 15.6116 31.4632 16.7195 30.8333C17.1931 31.2691 17.7065 31.6597 18.2528 32C19.0219 32.442 19.9352 32.5604 20.7916 32.3291C21.648 32.0978 22.3775 31.5358 22.8195 30.7667C23.2615 29.9975 23.3799 29.0843 23.1486 28.2279C22.9173 27.3715 22.3553 26.642 21.5861 26.2C21.1169 25.9411 20.7256 25.5613 20.4528 25.1C20.1446 24.5648 20.0052 23.9491 20.0528 23.3333C20.0528 22.4493 20.404 21.6014 21.0291 20.9763C21.6542 20.3512 22.5021 20 23.3861 20C23.6184 19.9676 23.8539 19.9676 24.0861 20C24.2626 20.5356 24.4742 21.0589 24.7195 21.5667C24.9372 21.9486 25.2284 22.2837 25.5762 22.5527C25.9241 22.8216 26.3217 23.0191 26.7461 23.1337C27.1706 23.2484 27.6136 23.2779 28.0495 23.2206C28.4854 23.1633 28.9057 23.0204 29.2861 22.8C30.0252 22.3553 30.5631 21.6416 30.7868 20.8086C31.0106 19.9757 30.9028 19.0885 30.4861 18.3333C30.2065 17.822 30.0576 17.2494 30.0528 16.6667C30.0528 15.7826 30.404 14.9348 31.0291 14.3096C31.6542 13.6845 32.5021 13.3333 33.3861 13.3333C34.2702 13.3333 35.118 13.6845 35.7432 14.3096C36.3683 14.9348 36.7195 15.7826 36.7195 16.6667V28.5ZM62.3528 42.9C61.6211 43.1907 60.8402 43.3379 60.0528 43.3333C59.1688 43.3333 58.3209 43.6845 57.6958 44.3096C57.0707 44.9348 56.7195 45.7826 56.7195 46.6667C56.7195 47.5507 57.0707 48.3986 57.6958 49.0237C58.3209 49.6488 59.1688 50 60.0528 50C60.8128 50.0011 61.5714 49.9342 62.3195 49.8C63.0005 50.8539 63.3702 52.0786 63.3861 53.3333C63.3861 55.1014 62.6838 56.7971 61.4335 58.0474C60.1833 59.2976 58.4876 60 56.7195 60C55.1462 60.0015 53.623 59.4466 52.4195 58.4333C51.7388 57.8675 50.8612 57.5953 49.9797 57.6766C49.0983 57.7579 48.2853 58.1859 47.7195 58.8667C47.1537 59.5474 46.8815 60.425 46.9627 61.3064C47.044 62.1878 47.4721 63.0009 48.1528 63.5667C48.6592 63.9711 49.1939 64.3387 49.7528 64.6667C49.4949 65.2577 49.071 65.7613 48.5326 66.1163C47.9942 66.4713 47.3644 66.6625 46.7195 66.6667C45.8354 66.6667 44.9876 66.3155 44.3625 65.6904C43.7373 65.0652 43.3861 64.2174 43.3861 63.3333V56.6667C43.3936 55.3023 43.8194 53.973 44.6063 52.8583C45.3931 51.7436 46.503 50.8972 47.7861 50.4333C48.626 50.1504 49.3191 49.5455 49.7129 48.7516C50.1067 47.9577 50.169 47.0398 49.8861 46.2C49.6032 45.3601 48.9983 44.6671 48.2044 44.2732C47.4105 43.8794 46.4927 43.8171 45.6528 44.1C44.8701 44.3947 44.1121 44.7514 43.3861 45.1667V40C43.3936 38.6356 43.8194 37.3063 44.6063 36.1916C45.3931 35.077 46.503 34.2305 47.7861 33.7667C48.202 33.6266 48.5862 33.406 48.9168 33.1174C49.2474 32.8289 49.5179 32.478 49.7129 32.0849C49.9079 31.6918 50.0236 31.2642 50.0533 30.8263C50.083 30.3885 50.0262 29.9492 49.8861 29.5333C49.7461 29.1175 49.5255 28.7333 49.2369 28.4027C48.9483 28.0721 48.5975 27.8016 48.2044 27.6066C47.8113 27.4116 47.3836 27.2959 46.9458 27.2662C46.508 27.2364 46.0687 27.2932 45.6528 27.4333C44.8701 27.7281 44.1121 28.0848 43.3861 28.5V16.6667C43.3861 15.7826 43.7373 14.9348 44.3625 14.3096C44.9876 13.6845 45.8354 13.3333 46.7195 13.3333C47.6035 13.3333 48.4514 13.6845 49.0765 14.3096C49.7016 14.9348 50.0528 15.7826 50.0528 16.6667C50.048 17.2494 49.8992 17.822 49.6195 18.3333C49.3977 18.7118 49.2528 19.1303 49.1931 19.5649C49.1334 19.9994 49.16 20.4415 49.2715 20.8658C49.383 21.29 49.5771 21.6881 49.8428 22.0372C50.1084 22.3862 50.4403 22.6794 50.8195 22.9C51.1999 23.1204 51.6202 23.2633 52.0561 23.3206C52.4921 23.3779 52.935 23.3484 53.3595 23.2337C53.784 23.1191 54.1816 22.9216 54.5294 22.6527C54.8772 22.3837 55.1684 22.0486 55.3861 21.6667C55.6356 21.1265 55.8473 20.5696 56.0195 20C56.2517 19.9676 56.4873 19.9676 56.7195 20C57.6035 20 58.4514 20.3512 59.0765 20.9763C59.7016 21.6014 60.0528 22.4493 60.0528 23.3333C60.0477 23.9868 59.8507 24.6243 59.4861 25.1667C59.2135 25.5992 58.8349 25.9549 58.3861 26.2C57.617 26.642 57.055 27.3715 56.8237 28.2279C56.5924 29.0843 56.7108 29.9975 57.1528 30.7667C57.5948 31.5358 58.3243 32.0978 59.1807 32.3291C60.0371 32.5604 60.9504 32.442 61.7195 32C62.318 31.6763 62.8772 31.2849 63.3861 30.8333C64.4978 31.4521 65.4092 32.3761 66.0127 33.4961C66.6162 34.6161 66.8866 35.8855 66.792 37.1542C66.6973 38.423 66.2416 39.6382 65.4786 40.6563C64.7157 41.6744 63.6773 42.453 62.4861 42.9H62.3528Z" fill="#F93976"/>
    </g>
    <defs>
        <clipPath id="clip0_3_18">
            <rect width="40" height="80" fill="white"/>
        </clipPath>
        <clipPath id="clip1_3_18">
            <rect width="44" height="80" fill="white" transform="translate(40)"/>
        </clipPath>
    </defs>
</svg>
